<svg width="55" height="36" viewBox="0 0 55 36" fill="none" xmlns="http://www.w3.org/2000/svg">
<g clip-path="url(#clip0_769_3571)">
<path d="M0 7.45186C0 6.81736 0.334695 6.2297 0.880929 5.90516L8.09406 1.61944C9.29608 0.905246 10.8197 1.76985 10.8197 3.16616V32.8338C10.8197 34.2301 9.29608 35.0947 8.09406 34.3805L0.880933 30.0948C0.334695 29.7703 0 29.1826 0 28.5481V7.45186Z" fill="#C61F1F"/>
<path d="M15.3279 7.62473C15.3279 6.9 15.7633 6.24597 16.4326 5.96526L28.1539 1.04928C29.3424 0.550848 30.6557 1.42201 30.6557 2.70875V33.2913C30.6557 34.578 29.3424 35.4492 28.1539 34.9508L16.4326 30.0348C15.7633 29.7541 15.3279 29.1 15.3279 28.3753V7.62473Z" fill="#C61F1F"/>
<path d="M35.1639 7.73662C35.1639 6.95664 35.6672 6.26544 36.4104 6.0246L52.64 0.76484C53.8049 0.387265 55 1.25417 55 2.47687V33.523C55 34.7457 53.8049 35.6126 52.64 35.2351L36.4104 29.9753C35.6672 29.7345 35.1639 29.0433 35.1639 28.2633V7.73662Z" fill="#C61F1F"/>
</g>
<defs>
<clipPath id="clip0_769_3571">
<rect width="55" height="36" fill="white"/>
</clipPath>
</defs>
</svg>
