<svg width="112" height="36" viewBox="0 0 112 36" fill="none" xmlns="http://www.w3.org/2000/svg">
<g clip-path="url(#clip0_805_6641)">
<g clip-path="url(#clip1_805_6641)">
<path d="M0 7.45187C0 6.81737 0.334695 6.22972 0.880929 5.90518L8.09406 1.61945C9.29608 0.905261 10.8197 1.76987 10.8197 3.16618V32.8339C10.8197 34.2302 9.29608 35.0947 8.09406 34.3805L0.880933 30.0948C0.334695 29.7703 0 29.1826 0 28.5481V7.45187Z" fill="#C61F1F"/>
<path d="M15.3279 7.62471C15.3279 6.89999 15.7633 6.24596 16.4326 5.96525L28.1539 1.04927C29.3424 0.550833 30.6557 1.422 30.6557 2.70874V33.2913C30.6557 34.578 29.3424 35.4492 28.1539 34.9507L16.4326 30.0348C15.7633 29.754 15.3279 29.1 15.3279 28.3753V7.62471Z" fill="#C61F1F"/>
<path d="M35.1639 7.73667C35.1639 6.95668 35.6672 6.26548 36.4104 6.02464L52.64 0.764886C53.8049 0.38731 55 1.25422 55 2.47691V33.5231C55 34.7458 53.8049 35.6127 52.64 35.2351L36.4104 29.9754C35.6672 29.7345 35.1639 29.0433 35.1639 28.2633V7.73667Z" fill="#C61F1F"/>
</g>
<g clip-path="url(#clip2_805_6641)">
<path d="M98.5554 34V20H102.235V25.48L107.055 20H111.515L106.315 25.82L111.835 34H107.395L103.735 28.48L102.235 30.16V34H98.5554Z" fill="#C61F1F"/>
<path d="M90.5901 34.12C86.3701 34.12 83.8301 31.32 83.8301 27C83.8301 22.68 86.4501 19.88 90.7901 19.88C94.2301 19.88 96.6301 22.1 96.8901 25.22H93.2101C92.9501 23.88 92.0301 22.92 90.5901 22.92C88.6701 22.92 87.5901 24.6 87.5901 27C87.5901 29.4 88.6701 31.08 90.5901 31.08C92.0301 31.08 92.9501 30.12 93.2101 28.78H96.8901C96.6301 31.9 94.1501 34.12 90.5901 34.12Z" fill="#C61F1F"/>
<path d="M78 34V20H81.68V34H78Z" fill="#C61F1F"/>
<path d="M65 23.12V20H76.24V23.12H72.46V34H68.78V23.12H65Z" fill="#C61F1F"/>
<path d="M94.1477 16H84.3477V2H88.0277V12.88H94.1477V16Z" fill="#C61F1F"/>
<path d="M78 16V2H81.68V16H78Z" fill="#C61F1F"/>
<path d="M65.1 16V2H70.64C74 2 76 3.32 76 5.7C76 7.54 74.88 8.56 73.12 8.82C75.18 9.04 76.46 10.04 76.46 12.02C76.46 14.46 74.46 16 70.94 16H65.1ZM70.7 4.78H68.78V7.58H70.7C71.72 7.58 72.32 7.02 72.32 6.18C72.32 5.34 71.72 4.78 70.7 4.78ZM70.98 10.32H68.78V13.2H70.98C72.04 13.2 72.68 12.66 72.68 11.76C72.68 10.86 72.04 10.32 70.98 10.32Z" fill="#C61F1F"/>
<path d="M111 7.44444H111.25V7.19444V3.22222C111.25 2.67647 110.793 2.25 110.25 2.25H96.75C96.2067 2.25 95.75 2.67646 95.75 3.22222V14.7778C95.75 15.3235 96.2067 15.75 96.75 15.75H110.25C110.793 15.75 111.25 15.3235 111.25 14.7778V10.8056V10.5556H111C110.094 10.5556 109.375 9.8503 109.375 9C109.375 8.14971 110.094 7.44444 111 7.44444ZM101.625 12.0833C101.077 12.0833 100.599 12.3952 100.379 12.8531L97.75 13.711V4.28901L100.379 5.14688C100.599 5.60479 101.077 5.91667 101.625 5.91667C102.163 5.91667 102.634 5.61602 102.859 5.1717L109.25 4.23381V5.93415C108.136 6.52836 107.375 7.67582 107.375 9C107.375 10.3241 108.136 11.4716 109.25 12.0658V13.7662L102.859 12.8283C102.634 12.384 102.163 12.0833 101.625 12.0833Z" fill="#C61F1F" stroke="#C61F1F" stroke-width="0.5"/>
</g>
</g>
<defs>
<clipPath id="clip0_805_6641">
<rect width="112" height="36" fill="white"/>
</clipPath>
<clipPath id="clip1_805_6641">
<rect width="55" height="36" fill="white"/>
</clipPath>
<clipPath id="clip2_805_6641">
<rect width="46.8355" height="32.12" fill="white" transform="translate(65 2)"/>
</clipPath>
</defs>
</svg>
